<?xml version="1.0"?>
<svg xmlns="http://www.w3.org/2000/svg" viewBox="0 0 50 50">
    <path style="text-indent:0;text-align:start;line-height:normal;text-transform:none;block-progression:tb;-inkscape-font-specification:Bitstream Vera Sans" d="M 15.75 3.0625 A 1.0001 1.0001 0 0 0 15.625 3.09375 C 15.625 3.09375 12.381814 3.6505073 9.34375 6.6875 C 6.2965215 9.733654 5.71875 13.125 5.71875 13.125 A 1.0001 1.0001 0 1 0 7.6875 13.46875 C 7.6875 13.46875 8.1252285 10.748846 10.75 8.125 C 13.383936 5.4919927 15.96875 5.0625 15.96875 5.0625 A 1.0059637 1.0059637 0 1 0 15.75 3.0625 z M 28.96875 4.25 C 27.942924 4.25 26.933205 4.629295 26.15625 5.40625 L 24.25 7.3125 C 23.798591 7.1697611 23.32325 7.0768337 22.84375 7.0625 C 22.308672 7.046505 21.7509 7.090013 21.21875 7.25 L 14.96875 9.125 C 12.615302 9.8322414 10.984824 11.982762 10.875 14.4375 L 10.375 25.4375 L 3.28125 32.53125 A 1.0054782 1.0054782 0 1 0 4.71875 33.9375 L 12.0625 26.59375 A 1.0001 1.0001 0 0 0 12.34375 25.90625 L 12.84375 14.53125 L 12.84375 14.5 C 12.92799 12.899764 14.025656 11.524341 15.5625 11.0625 L 21.8125 9.1875 C 23.109901 8.7974466 24.490559 9.283005 25.25 10.40625 L 29.46875 16.65625 C 29.959253 17.382667 29.777256 18.335078 29.0625 18.84375 C 28.376598 19.331281 27.44711 19.207181 26.90625 18.5625 L 24.09375 15.1875 A 1.0001 1.0001 0 0 0 23.125 14.84375 L 20.46875 15.34375 A 1.0001 1.0001 0 0 0 19.84375 16.9375 C 19.84375 16.9375 21.180303 18.728098 22.375 21.09375 C 23.569697 23.459402 24.508544 26.380654 24 28.21875 A 1.0001 1.0001 0 1 0 25.90625 28.75 C 26.686706 25.929096 25.471053 22.760348 24.1875 20.21875 C 23.279639 18.421069 22.751778 17.75095 22.25 17.03125 L 22.9375 16.90625 L 25.375 19.84375 C 26.334779 20.987762 27.888986 21.375301 29.25 20.9375 C 29.228822 21.979656 29.614635 23.020885 30.40625 23.8125 C 31.097828 24.503488 31.996227 24.861361 32.90625 24.9375 C 32.57449 26.259874 32.909744 27.722244 33.9375 28.75 C 35.405104 30.216352 37.746247 30.271925 39.3125 28.96875 C 39.254674 29.031455 39.21887 29.093659 39.15625 29.15625 L 32.625 35.71875 C 30.682553 37.661197 27.792053 38.276832 25.21875 37.3125 L 21.1875 35.8125 A 1.0040202 1.0040202 0 0 0 20.46875 37.6875 L 23.78125 38.90625 L 17.65625 45.03125 A 1.0054782 1.0054782 0 1 0 19.09375 46.4375 L 25.90625 39.59375 C 28.821354 40.170424 31.887695 39.268555 34.03125 37.125 L 40.59375 30.59375 C 42.453145 28.73521 42.710944 26.559831 42.71875 25.59375 L 43.125 25.21875 C 44.67891 23.66484 44.67891 21.11641 43.125 19.5625 C 42.534564 18.972064 41.804112 18.607946 41.03125 18.46875 C 41.743947 16.980274 41.509161 15.134161 40.28125 13.90625 C 39.585339 13.210339 38.694951 12.852304 37.78125 12.78125 C 38.11301 11.449619 37.777756 9.9652561 36.75 8.9375 C 35.973045 8.160545 34.963326 7.78125 33.9375 7.78125 C 33.603397 7.78125 33.265172 7.8251479 32.9375 7.90625 C 32.861378 6.9962591 32.503916 6.0976659 31.8125 5.40625 C 31.035545 4.629295 29.994576 4.25 28.96875 4.25 z M 29 6.25 C 29.513415 6.25 30.011205 6.4487051 30.40625 6.84375 C 31.1855 7.6230003 31.195368 8.8339461 30.4375 9.625 C 30.426958 9.6360038 30.41709 9.6454104 30.40625 9.65625 L 30.21875 9.84375 A 1.0001 1.0001 0 0 0 30.03125 10.0625 L 28.46875 11.59375 L 26.90625 9.28125 C 26.672895 8.9361084 26.392954 8.612723 26.09375 8.34375 L 27.5625 6.84375 C 27.957545 6.4487051 28.486585 6.25 29 6.25 z M 33.9375 9.78125 C 34.443103 9.78125 34.948705 9.9799551 35.34375 10.375 C 36.13384 11.16509 36.13384 12.39741 35.34375 13.1875 L 34.65625 13.875 C 34.645492 13.88551 34.635659 13.895591 34.625 13.90625 L 31.65625 16.875 C 31.571081 16.403376 31.408608 15.951264 31.125 15.53125 L 29.625 13.28125 L 31.4375 11.4375 L 31.53125 11.375 A 1.0001 1.0001 0 0 0 31.625 11.25 L 31.65625 11.21875 L 31.8125 11.0625 L 32.53125 10.375 C 32.926295 9.9799551 33.431897 9.78125 33.9375 9.78125 z M 37.46875 14.71875 C 37.978424 14.71875 38.479955 14.917455 38.875 15.3125 C 39.66509 16.10259 39.66509 17.36616 38.875 18.15625 L 34.625 22.375 C 33.836437 23.163563 32.602226 23.164052 31.8125 22.375 C 31.060951 21.623451 31.040523 20.478087 31.71875 19.6875 A 1.0001 1.0001 0 0 0 31.8125 19.5625 L 36.0625 15.3125 C 36.457545 14.917455 36.959076 14.71875 37.46875 14.71875 z M 40.28125 20.375 C 40.790924 20.375 41.323705 20.573705 41.71875 20.96875 C 42.50884 21.75884 42.50884 23.02241 41.71875 23.8125 L 41.28125 24.28125 A 1.0001 1.0001 0 0 0 40.84375 24.6875 L 38.1875 27.34375 C 37.397573 28.133003 36.133677 28.133003 35.34375 27.34375 C 34.55366 26.55366 34.55366 25.29009 35.34375 24.5 L 36.0625 23.8125 L 38.875 20.96875 C 39.270045 20.573705 39.771576 20.375 40.28125 20.375 z M 45.125 30.8125 A 1.0001 1.0001 0 0 0 44.4375 31.34375 C 44.4375 31.34375 42.664945 34.741305 39.875 37.53125 C 37.093114 40.313136 33.65625 42.03125 33.65625 42.03125 A 1.0132183 1.0132183 0 1 0 34.5625 43.84375 C 34.5625 43.84375 38.244386 42.005614 41.3125 38.9375 C 44.372555 35.877445 46.21875 32.28125 46.21875 32.28125 A 1.0001 1.0001 0 0 0 45.21875 30.8125 A 1.0001 1.0001 0 0 0 45.125 30.8125 z M 46.0625 37.125 A 1.0001 1.0001 0 0 0 45.375 37.59375 C 45.375 37.59375 44.372482 39.190018 42.96875 40.59375 C 41.570977 41.991523 39.9375 43 39.9375 43 A 1.0021949 1.0021949 0 1 0 40.96875 44.71875 C 40.96875 44.71875 42.766773 43.639477 44.375 42.03125 C 45.977268 40.428982 47.0625 38.65625 47.0625 38.65625 A 1.0001 1.0001 0 0 0 46.0625 37.125 z"/>
</svg>
